<svg width="150" height="154" viewBox="0 0 150 154" fill="none" xmlns="http://www.w3.org/2000/svg">
<path d="M5.36244 127.361H0.139416V152.673H5.36244V142.227H16.612V152.673H21.835V127.361H16.612V137.406H5.36244V127.361ZM45.5395 141.825C45.5395 145.843 43.5307 148.253 39.9147 148.253C36.2988 148.253 34.2899 145.843 34.2899 141.825V127.763H29.0669V142.227C29.0669 149.459 33.0846 153.476 39.9147 153.476C46.7448 153.476 50.7625 149.459 50.7625 142.227V128.165H45.5395V141.825ZM94.5555 127.361L88.9308 144.637L83.306 127.361H78.0829L86.5201 152.673H90.9396L96.5644 136.2L102.189 152.673H106.609L115.448 127.361H110.225L104.6 144.637L98.975 127.361H94.5555ZM133.929 137.004H124.688V132.183H137.947V127.361H119.465V152.673H138.349V147.852H124.688V141.825H133.929V137.004ZM144.777 127.361H150V152.673H144.777V127.361ZM72.0564 147.45L74.467 152.673H79.69L68.8422 127.763H64.4227L53.1732 153.075H58.3962L60.405 148.253V147.852H72.0564V147.45ZM66.4316 133.79L70.0475 142.227L70.4493 142.629H62.8157L63.2174 142.227L66.4316 133.79Z" fill="#262729"/>
<path d="M64.4228 87.9878C64.4228 87.9878 64.8246 87.586 64.4228 87.586C46.7449 49.4178 22.6386 20.0885 22.6386 20.0885C22.6386 20.0885 9.38019 32.5434 10.5855 44.9983C10.9873 54.2391 18.2191 59.8638 18.2191 59.8638C29.4687 71.1134 57.1909 84.7736 63.6192 87.9878C64.021 87.9878 64.021 88.3896 64.4228 87.9878ZM60.0033 97.6303C60.0033 97.2285 59.6015 97.2285 59.6015 97.2285L13.3979 98.8356C18.2191 107.675 26.6563 114.505 35.4953 112.496C41.5219 110.889 55.1821 101.648 59.6015 98.4338L60.0033 97.6303ZM60.8069 93.2108C61.2086 92.8091 60.8069 92.4073 60.8069 92.4073C40.7183 78.7471 1.34477 57.855 1.34477 57.855C-2.27117 68.7028 2.55008 77.5418 2.55008 77.5418C7.37133 87.9878 17.0138 91.202 17.0138 91.202C21.4333 92.8091 25.8528 93.2108 25.8528 93.2108H60.4051C60.4051 93.6126 60.8069 93.2108 60.8069 93.2108ZM64.021 0.401771C62.0122 0.401771 56.7891 1.60708 56.7891 1.60708C44.736 4.82125 41.5219 15.6691 41.5219 15.6691C39.1112 22.4992 41.5219 30.1328 41.5219 30.1328C45.5396 48.2125 65.6281 77.5418 70.0476 83.9701C70.4494 84.3719 70.4494 83.9701 70.4494 83.9701C70.8511 83.9701 70.8511 83.5683 70.8511 83.5683C77.2795 17.6779 64.021 0.401771 64.021 0.401771ZM78.8865 84.3719C79.2883 84.3719 79.6901 83.9701 79.6901 83.9701C84.1096 77.5418 104.198 48.2125 108.216 30.1328C108.216 30.1328 110.225 21.2939 108.216 15.6691C108.216 15.6691 105.403 4.41948 92.9485 1.60708L85.7166 0C85.7166 0 72.0564 17.6779 78.8865 83.5683V84.3719ZM90.1361 97.2285C90.1361 97.2285 89.7344 97.2285 89.7344 97.6303V98.4338C94.1538 101.648 107.412 110.889 113.841 112.898C113.841 112.898 125.894 116.915 135.938 99.2374L90.1361 97.2285ZM148.393 58.2568C148.393 58.2568 109.421 79.1488 88.9308 92.8091C88.9308 92.8091 88.529 93.2108 88.529 93.6126C88.529 93.6126 88.529 94.0144 88.9308 94.0144H124.287C124.287 94.0144 127.903 94.0144 132.322 92.0055C132.322 92.0055 141.965 88.7913 147.188 77.9435C147.188 77.5418 151.607 68.7028 148.393 58.2568ZM85.3149 87.9878C85.3149 87.9878 85.7166 88.3896 86.1184 87.9878C92.5468 84.7736 120.269 70.7117 131.519 59.8638C131.519 59.8638 138.75 54.2391 139.152 44.9983C139.956 32.1417 127.099 20.0885 127.099 20.0885C127.099 20.0885 102.993 49.016 85.3149 87.1843C85.3149 87.1843 84.9131 87.586 85.3149 87.9878Z" fill="#CF0A2C"/>
</svg>
