<svg width="253" height="102" viewBox="0 0 253 102" fill="none" xmlns="http://www.w3.org/2000/svg">
<mask id="mask0_1_48" style="mask-type:luminance" maskUnits="userSpaceOnUse" x="0" y="0" width="253" height="102">
<path d="M0 0V20.9215H14.0999V80.4093H0.383898V101.079H49.4487V80.4093H35.3486V20.9215H49.0646V0H0ZM139.65 0.252067V20.9215H153.75V80.4093H140.034V101.079H174.998V43.5672L195.833 101.059L196.257 101.069L216.717 43.5672V101.079H252.065V80.4093H237.965V20.9215H251.681V0.252067H212.275L195.96 46.3526L179.438 0.252067H139.65Z" fill="white"/>
<path d="M56.0168 0.25206V20.9215H70.1167V53.6902H124.389V47.4067C124.389 47.4067 128.929 43.8672 130.376 40.5084L133.28 33.9912C133.28 33.9912 134.629 30.3433 134.629 27.0833L134.048 20.5661C134.048 20.5661 133.137 15.2568 131.547 13.6776L125.935 7.15037C125.935 7.15037 118.793 0.25206 109.334 0.25206H56.0168ZM91.3641 20.9215H112.032V40.0786H91.3641V20.9215Z" fill="white"/>
<path d="M56.0168 101.079V80.4093H70.1167V47.6406H124.389V53.9242C124.389 53.9242 128.929 57.4637 130.376 60.8225L133.28 67.3397C133.28 67.3397 134.629 70.9876 134.629 74.2475L134.048 80.7647C134.048 80.7647 133.137 86.074 131.547 87.6532L125.935 94.1805C125.935 94.1805 118.793 101.079 109.334 101.079H56.0168ZM91.3641 80.4093H112.032V61.2522H91.3641V80.4093Z" fill="white"/>
</mask>
<g mask="url(#mask0_1_48)">
<path d="M0 3.7011H259.629V17.1191H0M0 30.5371H245.765V43.9577H0V57.3732H245.765V70.7887H0M0 84.2092H259.629V97.6298H0" stroke="#1F70C1" stroke-width="25.2648"/>
</g>
</svg>
