<svg width="397" height="125" viewBox="0 0 397 125" fill="none" xmlns="http://www.w3.org/2000/svg">
<path d="M146.47 84.62V83.61C146.47 76.32 148.63 69.81 152.95 64.09C157.27 58.37 162.85 54.56 169.69 52.65C172.72 51.98 174.23 50.35 174.23 47.77C174.23 44.07 172.72 42.55 169.69 43.23C160.38 45.25 152.64 50.04 146.47 57.62C140.3 65.19 137.22 73.86 137.22 83.62V84.29C137.22 91.58 135.06 98.12 130.74 103.89C126.42 109.67 120.84 113.51 114 115.42C110.86 115.98 109.29 117.55 109.29 120.13C109.29 121.59 109.74 122.82 110.64 123.83C111.54 124.84 112.66 125.18 114 124.84C123.31 122.93 131.05 118.19 137.22 110.62C143.39 103.05 146.47 94.38 146.47 84.62Z" fill="#333333"/>
<path d="M177.43 79.07C179.9 79.07 181.47 77.56 182.14 74.53C184.05 67.69 187.86 62.08 193.58 57.7C199.3 53.32 205.81 51.14 213.1 51.14C222.07 51.14 229.7 54.28 235.99 60.56C242.27 66.84 245.41 74.47 245.41 83.44C245.41 92.3 242.27 99.9 235.99 106.24C229.71 112.58 222.08 115.75 213.1 115.75C205.92 115.75 199.44 113.56 193.67 109.19C187.89 104.81 183.94 99.21 181.81 92.36C181.58 89.33 180.07 87.82 177.27 87.82C173.57 87.82 172.05 89.33 172.73 92.36C174.97 102.01 179.82 109.83 187.29 115.83C194.75 121.83 203.36 124.83 213.12 124.83C224.57 124.83 234.35 120.79 242.48 112.72C250.61 104.64 254.68 94.88 254.68 83.44C254.68 72 250.61 62.24 242.48 54.16C234.35 46.08 224.56 42.04 213.12 42.04C203.36 42.04 194.7 45.1 187.12 51.21C179.55 57.33 174.75 65.09 172.73 74.51C172.06 77.54 173.63 79.05 177.44 79.05L177.43 79.07Z" fill="#333333"/>
<path d="M268.46 40.54V121.47C268.68 123.72 270.2 124.84 273 124.84C275.8 124.84 277.32 123.72 277.54 121.47V51.14H302.27C304.51 50.92 305.64 49.4 305.64 46.6C305.64 43.8 304.52 42.28 302.27 42.06H277.54V40.38C277.54 33.2 279.73 26.75 284.1 21.03C288.48 15.31 294.08 11.5 300.93 9.59C303.96 9.03 305.47 7.46 305.47 4.88C305.47 1.07 303.96 -0.5 300.93 0.17C291.62 2.19 283.88 6.96 277.71 14.47C271.54 21.99 268.46 30.68 268.46 40.55V40.54Z" fill="#333333"/>
<path d="M351.08 120.13C351.19 123.27 352.76 124.84 355.79 124.84C358.82 124.84 360.28 123.27 360.5 120.13V57.19C360.5 53.38 362.91 51.47 367.74 51.47H391.97C395.22 51.25 396.85 49.68 396.85 46.76C396.85 43.84 395.22 42.27 391.97 42.05H318.77C315.52 42.28 313.89 43.85 313.89 46.76C313.89 49.68 315.52 51.25 318.77 51.47H344.01C348.72 52.03 351.08 54.11 351.08 57.7V120.13Z" fill="#333333"/>
<path d="M82.83 81.65H108.63C111.26 81.65 113.4 83.79 113.4 86.42V87.46C113.4 90.09 111.26 92.23 108.63 92.23H82.83C80.2 92.23 78.06 90.09 78.06 87.46V86.42C78.06 83.79 80.2 81.65 82.83 81.65Z" fill="#333333"/>
<path d="M82.95 46.76C82.95 49.68 81.32 51.24 78.07 51.47H53.84C49.01 51.47 46.61 53.38 46.61 57.19V120.12C46.38 123.26 44.81 124.83 41.9 124.83C38.87 124.83 37.3 123.26 37.19 120.12V57.7C37.19 54.11 34.83 52.04 30.12 51.47H4.88C1.62 51.25 0 49.68 0 46.76C0 43.84 1.62 42.28 4.88 42.05H78.08C81.33 42.28 82.96 43.84 82.96 46.76H82.95Z" fill="#F36E21"/>
</svg>
